G04 MADE WITH FRITZING*
G04 WWW.FRITZING.ORG*
G04 DOUBLE SIDED*
G04 HOLES PLATED*
G04 CONTOUR ON CENTER OF CONTOUR VECTOR*
%ASAXBY*%
%FSLAX23Y23*%
%MOIN*%
%OFA0B0*%
%SFA1.0B1.0*%
%ADD10C,0.085900X0.0348*%
%ADD11C,0.075000X0.035*%
%ADD12C,0.126000X0.086*%
%ADD13R,0.075000X0.075000X0.035000X0.035000*%
%ADD14C,0.024000*%
%LNCOPPER0*%
G90*
G70*
G54D10*
X3076Y180D03*
X3273Y377D03*
X3175Y377D03*
X2978Y377D03*
X2880Y377D03*
X1576Y180D03*
X1773Y377D03*
X1675Y377D03*
X1478Y377D03*
X1380Y377D03*
X3576Y180D03*
X3773Y377D03*
X3675Y377D03*
X3478Y377D03*
X3380Y377D03*
X1076Y180D03*
X1273Y377D03*
X1175Y377D03*
X978Y377D03*
X880Y377D03*
X4576Y180D03*
X4773Y377D03*
X4675Y377D03*
X4478Y377D03*
X4380Y377D03*
X2076Y180D03*
X2273Y377D03*
X2175Y377D03*
X1978Y377D03*
X1880Y377D03*
X4076Y180D03*
X4273Y377D03*
X4175Y377D03*
X3978Y377D03*
X3880Y377D03*
X2576Y180D03*
X2773Y377D03*
X2675Y377D03*
X2478Y377D03*
X2380Y377D03*
X576Y180D03*
X773Y377D03*
X675Y377D03*
X478Y377D03*
X380Y377D03*
G54D11*
X2478Y977D03*
X2478Y677D03*
X2578Y977D03*
X2578Y677D03*
X2678Y977D03*
X2678Y677D03*
X2778Y977D03*
X2778Y677D03*
X2878Y977D03*
X2878Y677D03*
X2978Y977D03*
X2978Y677D03*
X3078Y977D03*
X3078Y677D03*
X3178Y977D03*
X3178Y677D03*
X478Y977D03*
X478Y677D03*
X578Y977D03*
X578Y677D03*
X678Y977D03*
X678Y677D03*
X778Y977D03*
X778Y677D03*
X878Y977D03*
X878Y677D03*
X978Y977D03*
X978Y677D03*
X1078Y977D03*
X1078Y677D03*
X1178Y977D03*
X1178Y677D03*
X1478Y977D03*
X1478Y677D03*
X1578Y977D03*
X1578Y677D03*
X1678Y977D03*
X1678Y677D03*
X1778Y977D03*
X1778Y677D03*
X1878Y977D03*
X1878Y677D03*
X1978Y977D03*
X1978Y677D03*
X2078Y977D03*
X2078Y677D03*
X2178Y977D03*
X2178Y677D03*
X3478Y977D03*
X3478Y677D03*
X3578Y977D03*
X3578Y677D03*
X3678Y977D03*
X3678Y677D03*
X3778Y977D03*
X3778Y677D03*
X3878Y977D03*
X3878Y677D03*
X3978Y977D03*
X3978Y677D03*
X4078Y977D03*
X4078Y677D03*
X4178Y977D03*
X4178Y677D03*
X2478Y1577D03*
X2478Y1277D03*
X2578Y1577D03*
X2578Y1277D03*
X2678Y1577D03*
X2678Y1277D03*
X2778Y1577D03*
X2778Y1277D03*
X2878Y1577D03*
X2878Y1277D03*
X2978Y1577D03*
X2978Y1277D03*
X3078Y1577D03*
X3078Y1277D03*
X3178Y1577D03*
X3178Y1277D03*
X478Y1577D03*
X478Y1277D03*
X578Y1577D03*
X578Y1277D03*
X678Y1577D03*
X678Y1277D03*
X778Y1577D03*
X778Y1277D03*
X878Y1577D03*
X878Y1277D03*
X978Y1577D03*
X978Y1277D03*
X1078Y1577D03*
X1078Y1277D03*
X1178Y1577D03*
X1178Y1277D03*
X3178Y1877D03*
X3178Y2177D03*
X3078Y1877D03*
X3078Y2177D03*
X2978Y1877D03*
X2978Y2177D03*
X2878Y1877D03*
X2878Y2177D03*
X2778Y1877D03*
X2778Y2177D03*
X2678Y1877D03*
X2678Y2177D03*
X2578Y1877D03*
X2578Y2177D03*
X2478Y1877D03*
X2478Y2177D03*
X1178Y1877D03*
X1178Y2177D03*
X1078Y1877D03*
X1078Y2177D03*
X978Y1877D03*
X978Y2177D03*
X878Y1877D03*
X878Y2177D03*
X778Y1877D03*
X778Y2177D03*
X678Y1877D03*
X678Y2177D03*
X578Y1877D03*
X578Y2177D03*
X478Y1877D03*
X478Y2177D03*
X3478Y2177D03*
X3478Y1577D03*
X3578Y2177D03*
X3578Y1577D03*
X3678Y2177D03*
X3678Y1577D03*
X3778Y2177D03*
X3778Y1577D03*
X3878Y2177D03*
X3878Y1577D03*
X3978Y2177D03*
X3978Y1577D03*
X4078Y2177D03*
X4078Y1577D03*
X4178Y2177D03*
X4178Y1577D03*
X4278Y2177D03*
X4278Y1577D03*
X4378Y2177D03*
X4378Y1577D03*
X4478Y2177D03*
X4478Y1577D03*
X4578Y2177D03*
X4578Y1577D03*
X4678Y2177D03*
X4678Y1577D03*
X4778Y2177D03*
X4778Y1577D03*
X4878Y2177D03*
X4878Y1577D03*
X4478Y977D03*
X4478Y577D03*
X3478Y1377D03*
X3578Y1377D03*
G54D12*
X169Y2483D03*
X5078Y2487D03*
X5081Y168D03*
X167Y167D03*
G54D11*
X4878Y2377D03*
X4778Y2377D03*
X4678Y2377D03*
X4578Y2377D03*
X4478Y2377D03*
X3878Y1377D03*
X3978Y1377D03*
X4078Y1377D03*
X4178Y1377D03*
X4278Y1377D03*
X4378Y1377D03*
X4478Y1377D03*
X4578Y1377D03*
X4678Y1377D03*
X4778Y1377D03*
X4878Y1377D03*
G54D13*
X2478Y977D03*
X478Y977D03*
X1478Y977D03*
X3478Y977D03*
X2478Y1577D03*
X478Y1577D03*
X3178Y1877D03*
X1178Y1877D03*
X3478Y2177D03*
X4478Y977D03*
X3478Y1377D03*
X4878Y2377D03*
X3878Y1377D03*
G54D14*
X677Y705D02*
X673Y772D01*
X673Y772D02*
X472Y772D01*
X472Y772D02*
X476Y705D01*
D02*
X2876Y705D02*
X2871Y772D01*
X2871Y772D02*
X3072Y772D01*
X3072Y772D02*
X3076Y705D01*
D02*
X1876Y705D02*
X1873Y772D01*
X1873Y772D02*
X2074Y772D01*
X2074Y772D02*
X2077Y705D01*
D02*
X1676Y705D02*
X1672Y772D01*
X1672Y772D02*
X1472Y772D01*
X1472Y772D02*
X1476Y705D01*
D02*
X877Y705D02*
X875Y772D01*
X875Y772D02*
X1071Y772D01*
X1071Y772D02*
X1076Y705D01*
D02*
X2677Y705D02*
X2675Y772D01*
X2675Y772D02*
X2473Y772D01*
X2473Y772D02*
X2477Y705D01*
D02*
X3876Y705D02*
X3873Y771D01*
X3873Y771D02*
X4073Y771D01*
X4073Y771D02*
X4076Y705D01*
D02*
X873Y1771D02*
X877Y1848D01*
D02*
X770Y1673D02*
X873Y1771D01*
D02*
X776Y1605D02*
X770Y1673D01*
D02*
X770Y1771D02*
X672Y1673D01*
X672Y1673D02*
X676Y1605D01*
D02*
X776Y1848D02*
X770Y1771D01*
D02*
X873Y1673D02*
X877Y1605D01*
D02*
X972Y1771D02*
X873Y1673D01*
D02*
X976Y1848D02*
X972Y1771D01*
D02*
X1075Y1673D02*
X1077Y1605D01*
D02*
X1173Y1771D02*
X1075Y1673D01*
D02*
X1177Y1848D02*
X1173Y1771D01*
D02*
X972Y1673D02*
X1075Y1771D01*
X1075Y1771D02*
X1077Y1848D01*
D02*
X976Y1605D02*
X972Y1673D01*
D02*
X577Y648D02*
X574Y573D01*
X574Y573D02*
X471Y573D01*
X471Y573D02*
X477Y405D01*
D02*
X672Y1771D02*
X676Y1848D01*
D02*
X574Y1673D02*
X672Y1771D01*
D02*
X577Y1605D02*
X574Y1673D01*
D02*
X574Y1771D02*
X577Y1848D01*
D02*
X471Y1673D02*
X574Y1771D01*
D02*
X476Y1605D02*
X471Y1673D01*
D02*
X1477Y405D02*
X1472Y573D01*
D02*
X1570Y573D02*
X1576Y648D01*
D02*
X1472Y573D02*
X1570Y573D01*
D02*
X978Y648D02*
X978Y405D01*
D02*
X1178Y648D02*
X1175Y405D01*
D02*
X1978Y648D02*
X1978Y405D01*
D02*
X2175Y405D02*
X2178Y648D01*
D02*
X778Y648D02*
X774Y405D01*
D02*
X1778Y648D02*
X1774Y405D01*
D02*
X2572Y573D02*
X2473Y573D01*
D02*
X2576Y648D02*
X2572Y573D01*
D02*
X2473Y573D02*
X2477Y405D01*
D02*
X2778Y648D02*
X2774Y405D01*
D02*
X2978Y648D02*
X2978Y405D01*
D02*
X3175Y405D02*
X3178Y648D01*
D02*
X3573Y573D02*
X3577Y648D01*
D02*
X3478Y405D02*
X3475Y573D01*
X3475Y573D02*
X3573Y573D01*
D02*
X3778Y648D02*
X3774Y405D01*
D02*
X3978Y648D02*
X3978Y405D01*
D02*
X4175Y405D02*
X4178Y648D01*
D02*
X3475Y772D02*
X3671Y772D01*
X3671Y772D02*
X3676Y705D01*
D02*
X3477Y705D02*
X3475Y772D01*
D02*
X2572Y1771D02*
X2473Y1673D01*
X2473Y1673D02*
X2477Y1605D01*
D02*
X2576Y1848D02*
X2572Y1771D01*
D02*
X2675Y1771D02*
X2677Y1848D01*
D02*
X2572Y1673D02*
X2675Y1771D01*
D02*
X2576Y1605D02*
X2572Y1673D01*
D02*
X2773Y1771D02*
X2777Y1848D01*
D02*
X2675Y1673D02*
X2773Y1771D01*
D02*
X2677Y1605D02*
X2675Y1673D01*
D02*
X2871Y1771D02*
X2876Y1848D01*
D02*
X2773Y1673D02*
X2871Y1771D01*
D02*
X2776Y1605D02*
X2773Y1673D01*
D02*
X2974Y1771D02*
X2977Y1848D01*
D02*
X2871Y1673D02*
X2974Y1771D01*
D02*
X2876Y1605D02*
X2871Y1673D01*
D02*
X3072Y1771D02*
X3076Y1848D01*
D02*
X2974Y1673D02*
X3072Y1771D01*
D02*
X2977Y1605D02*
X2974Y1673D01*
D02*
X3170Y1771D02*
X3176Y1848D01*
D02*
X3072Y1673D02*
X3170Y1771D01*
D02*
X3076Y1605D02*
X3072Y1673D01*
D02*
X4077Y208D02*
X4078Y648D01*
D02*
X672Y470D02*
X677Y648D01*
D02*
X574Y470D02*
X672Y470D01*
D02*
X576Y208D02*
X574Y470D01*
D02*
X1078Y648D02*
X1077Y208D01*
D02*
X1570Y470D02*
X1673Y470D01*
X1673Y470D02*
X1677Y648D01*
D02*
X1576Y208D02*
X1570Y470D01*
D02*
X2077Y208D02*
X2078Y648D01*
D02*
X2572Y470D02*
X2576Y208D01*
D02*
X2675Y470D02*
X2572Y470D01*
D02*
X2678Y648D02*
X2675Y470D01*
D02*
X3077Y208D02*
X3078Y648D01*
D02*
X3677Y648D02*
X3671Y470D01*
X3671Y470D02*
X3573Y470D01*
X3573Y470D02*
X3576Y208D01*
D02*
X2876Y2148D02*
X2871Y2070D01*
X2871Y2070D02*
X873Y2070D01*
X873Y2070D02*
X877Y2148D01*
D02*
X4073Y2273D02*
X4077Y2205D01*
D02*
X2975Y2270D02*
X4073Y2273D01*
D02*
X2977Y2205D02*
X2975Y2270D01*
D02*
X2473Y2271D02*
X2477Y2205D01*
D02*
X972Y2271D02*
X2473Y2271D01*
D02*
X976Y2205D02*
X972Y2271D01*
D02*
X3072Y2070D02*
X3273Y2070D01*
X3273Y2070D02*
X3273Y1771D01*
D02*
X3076Y2148D02*
X3072Y2070D01*
D02*
X3273Y1771D02*
X3170Y1673D01*
X3170Y1673D02*
X3176Y1605D01*
D02*
X2877Y2205D02*
X2870Y2369D01*
X2870Y2369D02*
X4172Y2372D01*
X4172Y2372D02*
X4177Y2205D01*
D02*
X770Y2370D02*
X2572Y2369D01*
D02*
X2672Y2473D02*
X2771Y2473D01*
D02*
X2572Y2369D02*
X2672Y2473D01*
D02*
X777Y2205D02*
X770Y2370D01*
D02*
X2771Y2473D02*
X2777Y2205D01*
D02*
X4271Y2471D02*
X2771Y2473D01*
D02*
X4277Y2205D02*
X4271Y2471D01*
D02*
X3776Y1605D02*
X3772Y1671D01*
D02*
X3373Y2072D02*
X3372Y2170D01*
X3372Y2170D02*
X3207Y2176D01*
D02*
X3772Y1671D02*
X3373Y2072D01*
D02*
X1176Y948D02*
X1172Y869D01*
X1172Y869D02*
X1575Y869D01*
D02*
X974Y869D02*
X1172Y869D01*
D02*
X1577Y948D02*
X1575Y869D01*
X1575Y869D02*
X1774Y869D01*
D02*
X977Y948D02*
X974Y869D01*
D02*
X775Y869D02*
X974Y869D01*
D02*
X1777Y948D02*
X1774Y869D01*
X1774Y869D02*
X1972Y869D01*
D02*
X777Y948D02*
X775Y869D01*
D02*
X570Y869D02*
X775Y869D01*
D02*
X1976Y948D02*
X1972Y869D01*
X1972Y869D02*
X2170Y869D01*
D02*
X576Y948D02*
X570Y869D01*
D02*
X372Y869D02*
X570Y869D01*
D02*
X2170Y869D02*
X2375Y869D01*
D02*
X2176Y948D02*
X2170Y869D01*
D02*
X373Y1673D02*
X372Y869D01*
D02*
X2375Y869D02*
X2573Y869D01*
D02*
X2370Y1869D02*
X2375Y869D01*
D02*
X471Y1771D02*
X373Y1673D01*
D02*
X476Y1848D02*
X471Y1771D01*
D02*
X2577Y948D02*
X2573Y869D01*
X2573Y869D02*
X2774Y869D01*
D02*
X2450Y1875D02*
X2370Y1869D01*
D02*
X2774Y869D02*
X2970Y869D01*
D02*
X2777Y948D02*
X2774Y869D01*
D02*
X2976Y948D02*
X2970Y869D01*
X2970Y869D02*
X3171Y869D01*
D02*
X3176Y948D02*
X3171Y869D01*
X3171Y869D02*
X3574Y869D01*
X3574Y869D02*
X3770Y869D01*
D02*
X3577Y948D02*
X3574Y869D01*
D02*
X3776Y948D02*
X3770Y869D01*
X3770Y869D02*
X3971Y869D01*
X3971Y869D02*
X3976Y948D01*
D02*
X4173Y869D02*
X3971Y869D01*
D02*
X4177Y948D02*
X4173Y869D01*
D02*
X4207Y977D02*
X4449Y977D01*
D02*
X777Y1248D02*
X773Y1072D01*
X773Y1072D02*
X1075Y1069D01*
X1075Y1069D02*
X1077Y1005D01*
D02*
X972Y1172D02*
X1673Y1069D01*
X1673Y1069D02*
X1677Y1005D01*
D02*
X976Y1248D02*
X972Y1172D01*
D02*
X1271Y1270D02*
X2071Y1069D01*
X2071Y1069D02*
X2076Y1005D01*
D02*
X1207Y1275D02*
X1271Y1270D01*
D02*
X2771Y1072D02*
X3072Y1069D01*
X3072Y1069D02*
X3076Y1005D01*
D02*
X2777Y1248D02*
X2771Y1072D01*
D02*
X2974Y1172D02*
X3671Y1069D01*
X3671Y1069D02*
X3676Y1005D01*
D02*
X2977Y1248D02*
X2974Y1172D01*
D02*
X3578Y1548D02*
X3578Y1405D01*
D02*
X3478Y1405D02*
X3478Y1548D01*
D02*
X4374Y2071D02*
X4972Y2071D01*
X4972Y2071D02*
X4973Y1171D01*
D02*
X4377Y2148D02*
X4374Y2071D01*
D02*
X4973Y1171D02*
X4570Y1171D01*
X4570Y1171D02*
X4570Y572D01*
X4570Y572D02*
X4507Y575D01*
D02*
X4576Y208D02*
X4570Y572D01*
D02*
X4878Y2205D02*
X4878Y2348D01*
D02*
X4778Y2205D02*
X4778Y2348D01*
D02*
X4678Y2205D02*
X4678Y2348D01*
D02*
X4578Y2205D02*
X4578Y2348D01*
D02*
X4478Y2205D02*
X4478Y2348D01*
D02*
X3878Y1548D02*
X3878Y1405D01*
D02*
X3978Y1405D02*
X3978Y1548D01*
D02*
X4078Y1405D02*
X4078Y1548D01*
D02*
X4178Y1405D02*
X4178Y1548D01*
D02*
X4278Y1405D02*
X4278Y1548D01*
D02*
X4378Y1405D02*
X4378Y1548D01*
D02*
X4478Y1405D02*
X4478Y1548D01*
D02*
X4578Y1405D02*
X4578Y1548D01*
D02*
X4678Y1405D02*
X4678Y1548D01*
D02*
X4778Y1405D02*
X4778Y1548D01*
D02*
X4878Y1405D02*
X4878Y1548D01*
D02*
X4173Y1171D02*
X4177Y1005D01*
D02*
X3675Y1272D02*
X4173Y1171D01*
D02*
X3675Y1372D02*
X3675Y1272D01*
D02*
X3607Y1375D02*
X3675Y1372D01*
D02*
X3273Y1270D02*
X4073Y1069D01*
D02*
X3207Y1275D02*
X3273Y1270D01*
D02*
X4073Y1069D02*
X4077Y1005D01*
D02*
X408Y377D02*
X450Y377D01*
D02*
X703Y377D02*
X745Y377D01*
D02*
X908Y377D02*
X950Y377D01*
D02*
X1203Y377D02*
X1245Y377D01*
D02*
X1408Y377D02*
X1450Y377D01*
D02*
X1703Y377D02*
X1745Y377D01*
D02*
X1908Y377D02*
X1950Y377D01*
D02*
X2203Y377D02*
X2245Y377D01*
D02*
X2408Y377D02*
X2450Y377D01*
D02*
X2703Y377D02*
X2745Y377D01*
D02*
X2908Y377D02*
X2950Y377D01*
D02*
X3203Y377D02*
X3245Y377D01*
D02*
X3408Y377D02*
X3450Y377D01*
D02*
X3703Y377D02*
X3745Y377D01*
D02*
X3908Y377D02*
X3950Y377D01*
D02*
X4203Y377D02*
X4245Y377D01*
G04 End of Copper0*
M02*