G04 MADE WITH FRITZING*
G04 WWW.FRITZING.ORG*
G04 DOUBLE SIDED*
G04 HOLES PLATED*
G04 CONTOUR ON CENTER OF CONTOUR VECTOR*
%ASAXBY*%
%FSLAX23Y23*%
%MOIN*%
%OFA0B0*%
%SFA1.0B1.0*%
%ADD10C,0.091900*%
%ADD11C,0.081000*%
%ADD12C,0.132000*%
%ADD13R,0.081000X0.081000*%
%LNMASK1*%
G90*
G70*
G54D10*
X3076Y180D03*
X3273Y377D03*
X3175Y377D03*
X2978Y377D03*
X2880Y377D03*
X1576Y180D03*
X1773Y377D03*
X1675Y377D03*
X1478Y377D03*
X1380Y377D03*
X3576Y180D03*
X3773Y377D03*
X3675Y377D03*
X3478Y377D03*
X3380Y377D03*
X1076Y180D03*
X1273Y377D03*
X1175Y377D03*
X978Y377D03*
X880Y377D03*
X4576Y180D03*
X4773Y377D03*
X4675Y377D03*
X4478Y377D03*
X4380Y377D03*
X2076Y180D03*
X2273Y377D03*
X2175Y377D03*
X1978Y377D03*
X1880Y377D03*
X4076Y180D03*
X4273Y377D03*
X4175Y377D03*
X3978Y377D03*
X3880Y377D03*
X2576Y180D03*
X2773Y377D03*
X2675Y377D03*
X2478Y377D03*
X2380Y377D03*
X576Y180D03*
X773Y377D03*
X675Y377D03*
X478Y377D03*
X380Y377D03*
G54D11*
X2478Y977D03*
X2478Y677D03*
X2578Y977D03*
X2578Y677D03*
X2678Y977D03*
X2678Y677D03*
X2778Y977D03*
X2778Y677D03*
X2878Y977D03*
X2878Y677D03*
X2978Y977D03*
X2978Y677D03*
X3078Y977D03*
X3078Y677D03*
X3178Y977D03*
X3178Y677D03*
X478Y977D03*
X478Y677D03*
X578Y977D03*
X578Y677D03*
X678Y977D03*
X678Y677D03*
X778Y977D03*
X778Y677D03*
X878Y977D03*
X878Y677D03*
X978Y977D03*
X978Y677D03*
X1078Y977D03*
X1078Y677D03*
X1178Y977D03*
X1178Y677D03*
X1478Y977D03*
X1478Y677D03*
X1578Y977D03*
X1578Y677D03*
X1678Y977D03*
X1678Y677D03*
X1778Y977D03*
X1778Y677D03*
X1878Y977D03*
X1878Y677D03*
X1978Y977D03*
X1978Y677D03*
X2078Y977D03*
X2078Y677D03*
X2178Y977D03*
X2178Y677D03*
X3478Y977D03*
X3478Y677D03*
X3578Y977D03*
X3578Y677D03*
X3678Y977D03*
X3678Y677D03*
X3778Y977D03*
X3778Y677D03*
X3878Y977D03*
X3878Y677D03*
X3978Y977D03*
X3978Y677D03*
X4078Y977D03*
X4078Y677D03*
X4178Y977D03*
X4178Y677D03*
X2478Y1577D03*
X2478Y1277D03*
X2578Y1577D03*
X2578Y1277D03*
X2678Y1577D03*
X2678Y1277D03*
X2778Y1577D03*
X2778Y1277D03*
X2878Y1577D03*
X2878Y1277D03*
X2978Y1577D03*
X2978Y1277D03*
X3078Y1577D03*
X3078Y1277D03*
X3178Y1577D03*
X3178Y1277D03*
X478Y1577D03*
X478Y1277D03*
X578Y1577D03*
X578Y1277D03*
X678Y1577D03*
X678Y1277D03*
X778Y1577D03*
X778Y1277D03*
X878Y1577D03*
X878Y1277D03*
X978Y1577D03*
X978Y1277D03*
X1078Y1577D03*
X1078Y1277D03*
X1178Y1577D03*
X1178Y1277D03*
X3178Y1877D03*
X3178Y2177D03*
X3078Y1877D03*
X3078Y2177D03*
X2978Y1877D03*
X2978Y2177D03*
X2878Y1877D03*
X2878Y2177D03*
X2778Y1877D03*
X2778Y2177D03*
X2678Y1877D03*
X2678Y2177D03*
X2578Y1877D03*
X2578Y2177D03*
X2478Y1877D03*
X2478Y2177D03*
X1178Y1877D03*
X1178Y2177D03*
X1078Y1877D03*
X1078Y2177D03*
X978Y1877D03*
X978Y2177D03*
X878Y1877D03*
X878Y2177D03*
X778Y1877D03*
X778Y2177D03*
X678Y1877D03*
X678Y2177D03*
X578Y1877D03*
X578Y2177D03*
X478Y1877D03*
X478Y2177D03*
X3478Y2177D03*
X3478Y1577D03*
X3578Y2177D03*
X3578Y1577D03*
X3678Y2177D03*
X3678Y1577D03*
X3778Y2177D03*
X3778Y1577D03*
X3878Y2177D03*
X3878Y1577D03*
X3978Y2177D03*
X3978Y1577D03*
X4078Y2177D03*
X4078Y1577D03*
X4178Y2177D03*
X4178Y1577D03*
X4278Y2177D03*
X4278Y1577D03*
X4378Y2177D03*
X4378Y1577D03*
X4478Y2177D03*
X4478Y1577D03*
X4578Y2177D03*
X4578Y1577D03*
X4678Y2177D03*
X4678Y1577D03*
X4778Y2177D03*
X4778Y1577D03*
X4878Y2177D03*
X4878Y1577D03*
X4478Y977D03*
X4478Y577D03*
X3478Y1377D03*
X3578Y1377D03*
G54D12*
X169Y2483D03*
X5078Y2487D03*
X5081Y168D03*
X167Y167D03*
G54D11*
X4878Y2377D03*
X4778Y2377D03*
X4678Y2377D03*
X4578Y2377D03*
X4478Y2377D03*
X3878Y1377D03*
X3978Y1377D03*
X4078Y1377D03*
X4178Y1377D03*
X4278Y1377D03*
X4378Y1377D03*
X4478Y1377D03*
X4578Y1377D03*
X4678Y1377D03*
X4778Y1377D03*
X4878Y1377D03*
G54D13*
X2478Y977D03*
X478Y977D03*
X1478Y977D03*
X3478Y977D03*
X2478Y1577D03*
X478Y1577D03*
X3178Y1877D03*
X1178Y1877D03*
X3478Y2177D03*
X4478Y977D03*
X3478Y1377D03*
X4878Y2377D03*
X3878Y1377D03*
G04 End of Mask1*
M02*