M48
M72,TZ
T10C0.034800
T11C0.035000
T12C0.086000
%
T10
X3.076450Y0.179889
X3.273250Y0.376689
X3.174850Y0.376689
X2.978050Y0.376689
X2.879650Y0.376689
X1.576460Y0.179889
X1.773260Y0.376689
X1.674860Y0.376689
X1.478060Y0.376689
X1.379660Y0.376689
X3.576450Y0.179889
X3.773250Y0.376689
X3.674850Y0.376689
X3.478050Y0.376689
X3.379650Y0.376689
X1.076460Y0.179889
X1.273260Y0.376689
X1.174860Y0.376689
X0.978060Y0.376689
X0.879660Y0.376689
X4.576460Y0.179889
X4.773260Y0.376689
X4.674860Y0.376689
X4.478060Y0.376689
X4.379660Y0.376689
X2.076460Y0.179889
X2.273260Y0.376689
X2.174860Y0.376689
X1.978060Y0.376689
X1.879660Y0.376689
X4.076450Y0.179889
X4.273250Y0.376689
X4.174850Y0.376689
X3.978050Y0.376689
X3.879650Y0.376689
X2.576460Y0.179889
X2.773260Y0.376689
X2.674860Y0.376689
X2.478060Y0.376689
X2.379660Y0.376689
X0.576450Y0.179889
X0.773250Y0.376689
X0.674850Y0.376689
X0.478050Y0.376689
X0.379650Y0.376689
T11
X2.478060Y0.976690
X2.478060Y0.676690
X2.578060Y0.976690
X2.578060Y0.676690
X2.678060Y0.976690
X2.678060Y0.676690
X2.778060Y0.976690
X2.778060Y0.676690
X2.878060Y0.976690
X2.878060Y0.676690
X2.978060Y0.976690
X2.978060Y0.676690
X3.078060Y0.976690
X3.078060Y0.676690
X3.178060Y0.976690
X3.178060Y0.676690
X0.478056Y0.976690
X0.478056Y0.676690
X0.578056Y0.976690
X0.578056Y0.676690
X0.678056Y0.976690
X0.678056Y0.676690
X0.778056Y0.976690
X0.778056Y0.676690
X0.878056Y0.976690
X0.878056Y0.676690
X0.978056Y0.976690
X0.978056Y0.676690
X1.078060Y0.976690
X1.078060Y0.676690
X1.178060Y0.976690
X1.178060Y0.676690
X1.478060Y0.976690
X1.478060Y0.676690
X1.578060Y0.976690
X1.578060Y0.676690
X1.678060Y0.976690
X1.678060Y0.676690
X1.778060Y0.976690
X1.778060Y0.676690
X1.878060Y0.976690
X1.878060Y0.676690
X1.978060Y0.976690
X1.978060Y0.676690
X2.078060Y0.976690
X2.078060Y0.676690
X2.178060Y0.976690
X2.178060Y0.676690
X3.478060Y0.976690
X3.478060Y0.676690
X3.578060Y0.976690
X3.578060Y0.676690
X3.678060Y0.976690
X3.678060Y0.676690
X3.778060Y0.976690
X3.778060Y0.676690
X3.878060Y0.976690
X3.878060Y0.676690
X3.978060Y0.976690
X3.978060Y0.676690
X4.078060Y0.976690
X4.078060Y0.676690
X4.178060Y0.976690
X4.178060Y0.676690
X2.478060Y1.576690
X2.478060Y1.276690
X2.578060Y1.576690
X2.578060Y1.276690
X2.678060Y1.576690
X2.678060Y1.276690
X2.778060Y1.576690
X2.778060Y1.276690
X2.878060Y1.576690
X2.878060Y1.276690
X2.978060Y1.576690
X2.978060Y1.276690
X3.078060Y1.576690
X3.078060Y1.276690
X3.178060Y1.576690
X3.178060Y1.276690
X0.478056Y1.576690
X0.478056Y1.276690
X0.578056Y1.576690
X0.578056Y1.276690
X0.678056Y1.576690
X0.678056Y1.276690
X0.778056Y1.576690
X0.778056Y1.276690
X0.878056Y1.576690
X0.878056Y1.276690
X0.978056Y1.576690
X0.978056Y1.276690
X1.078060Y1.576690
X1.078060Y1.276690
X1.178060Y1.576690
X1.178060Y1.276690
X3.178060Y1.876690
X3.178060Y2.176690
X3.078060Y1.876690
X3.078060Y2.176690
X2.978060Y1.876690
X2.978060Y2.176690
X2.878060Y1.876690
X2.878060Y2.176690
X2.778060Y1.876690
X2.778060Y2.176690
X2.678060Y1.876690
X2.678060Y2.176690
X2.578060Y1.876690
X2.578060Y2.176690
X2.478060Y1.876690
X2.478060Y2.176690
X1.178060Y1.876690
X1.178060Y2.176690
X1.078060Y1.876690
X1.078060Y2.176690
X0.978060Y1.876690
X0.978060Y2.176690
X0.878060Y1.876690
X0.878060Y2.176690
X0.778060Y1.876690
X0.778060Y2.176690
X0.678060Y1.876690
X0.678060Y2.176690
X0.578060Y1.876690
X0.578060Y2.176690
X0.478060Y1.876690
X0.478060Y2.176690
X3.478060Y2.176690
X3.478060Y1.576690
X3.578060Y2.176690
X3.578060Y1.576690
X3.678060Y2.176690
X3.678060Y1.576690
X3.778060Y2.176690
X3.778060Y1.576690
X3.878060Y2.176690
X3.878060Y1.576690
X3.978060Y2.176690
X3.978060Y1.576690
X4.078060Y2.176690
X4.078060Y1.576690
X4.178060Y2.176690
X4.178060Y1.576690
X4.278060Y2.176690
X4.278060Y1.576690
X4.378060Y2.176690
X4.378060Y1.576690
X4.478060Y2.176690
X4.478060Y1.576690
X4.578060Y2.176690
X4.578060Y1.576690
X4.678060Y2.176690
X4.678060Y1.576690
X4.778060Y2.176690
X4.778060Y1.576690
X4.878060Y2.176690
X4.878060Y1.576690
X4.478060Y0.976690
X4.478060Y0.576690
X3.478060Y1.376690
X3.578060Y1.376690
T12
X0.169278Y2.483040
X5.077930Y2.486600
X5.080720Y0.168256
X0.167333Y0.166956
T11
X4.878060Y2.376690
X4.778060Y2.376690
X4.678060Y2.376690
X4.578060Y2.376690
X4.478060Y2.376690
X3.878060Y1.376690
X3.978060Y1.376690
X4.078060Y1.376690
X4.178060Y1.376690
X4.278060Y1.376690
X4.378060Y1.376690
X4.478060Y1.376690
X4.578060Y1.376690
X4.678060Y1.376690
X4.778060Y1.376690
X4.878060Y1.376690
T00
M30
